#!OML:ASF C:\ViconDB\ViconDB\414\Spring2016\042216\male.ASF
:FULLY-SPECIFIED
:DEGREES
630
root 45.0598 17.7924 12.1893 -16.991 87.5091 -18.6242
lowerback -2.88153 -1.56386 3.84054
upperback -1.44952 -2.16253 -1.06884
thorax -0.0591917 -1.10171 -3.30862
lowerneck -4.13324 1.86608 -4.04075
upperneck 8.9507 2.57118 3.37108
head 3.54358 1.30196 1.94235
rclavicle 1.61637e-014 9.93923e-015
rhumerus -32.2363 -5.98688 -92.7371
rradius 26.0208
rwrist 34.0046
rhand 15.0522 -17.5901
rfingers 7.12502
rthumb 39.9008 -42.846
lclavicle 1.61637e-014 9.93923e-015
lhumerus -37.6323 14.5743 86.2684
lradius 31.853
lwrist -16.386
lhand -7.3589 13.3834
lfingers 7.12502
lthumb 18.5256 42.5212
rfemur -8.80209 3.55772 21.6921
rtibia 24.3818
rfoot -18.0128 -3.55234
rtoes -8.22525
lfemur -6.66976 -2.21893 -19.7804
ltibia 24.5261
lfoot -26.4832 10.6437
ltoes -9.87621
631
root 45.0585 17.7928 12.196 -19.7541 87.5052 -21.4053
lowerback -2.86694 -1.57736 3.88811
upperback -1.45591 -2.18116 -1.03833
thorax -0.0761816 -1.11164 -3.30366
lowerneck -4.12043 1.90755 -3.95722
upperneck 8.96961 2.62977 3.26505
head 3.54656 1.32949 1.894
rclavicle 1.50207e-014 2.5842e-015
rhumerus -32.2242 -5.88329 -92.8366
rradius 26.0283
rwrist 33.9046
rhand 14.994 -17.676
rfingers 7.12502
rthumb 39.846 -42.9483
lclavicle 1.50207e-014 2.5842e-015
lhumerus -37.6061 14.5357 86.2311
lradius 31.7495
lwrist -16.3923
lhand -7.53259 13.2861
lfingers 7.12502
lthumb 18.3585 42.4398
rfemur -8.79916 3.7972 21.8542
rtibia 24.3598
rfoot -18.0212 -3.86708
rtoes -8.31437
lfemur -6.72165 -2.25916 -19.6317
ltibia 24.5722
lfoot -26.3753 10.6845
ltoes -10.1544
632
root 45.0572 17.7939 12.1996 -19.6306 87.5321 -21.3096
lowerback -2.8698 -1.58859 3.8497
upperback -1.4623 -2.19506 -1.04552
thorax -0.0811122 -1.11856 -3.28975
lowerneck -4.1737 1.95274 -3.83869
upperneck 9.0373 2.69902 3.08929
head 3.58002 1.36068 1.81902
rclavicle 3.38804e-014 3.37934e-015
rhumerus -32.214 -5.91309 -92.8443
rradius 25.9459
rwrist 34.3953
rhand 14.7868 -17.2815
rfingers 7.12502
rthumb 39.651 -42.6119
lclavicle 3.38804e-014 3.37934e-015
lhumerus -37.6139 14.5446 86.2018
lradius 31.8193
lwrist -16.4171
lhand -7.13851 12.9698
lfingers 7.12502
lthumb 18.7376 42.0873
rfemur -8.83134 4.0326 21.8546
rtibia 24.3485
rfoot -18.0084 -4.06941
rtoes -8.21165
lfemur -6.76357 -2.32942 -19.6361
ltibia 24.6034
lfoot -26.3846 10.7302
ltoes -10.2033
633
root 45.0564 17.7928 12.2026 -21.0342 87.5595 -22.7101
lowerback -2.8508 -1.60249 3.88102
upperback -1.45682 -2.21392 -1.0276
thorax -0.0882404 -1.12823 -3.28874
lowerneck -4.19582 1.97823 -3.90619
upperneck 9.07229 2.73874 3.09647
head 3.59434 1.37841 1.83638
rclavicle -2.92959e-014 -2.5842e-015
rhumerus -32.2017 -5.85585 -92.8679
rradius 25.981
rwrist 34.56
rhand 14.8751 -17.2142
rfingers 7.12502
rthumb 39.7341 -42.5199
lclavicle -2.92959e-014 -2.5842e-015
lhumerus -37.583 14.5074 86.2328
lradius 31.8653
lwrist -16.3228
lhand -7.12121 13.0254
lfingers 7.12502
lthumb 18.7542 42.1414
rfemur -8.81668 4.04589 21.9277
rtibia 24.3419
rfoot -18.023 -4.16197
rtoes -8.21254
lfemur -6.77714 -2.19364 -19.5591
ltibia 24.6267
lfoot -26.4258 10.5904
ltoes -10.1897
634
root 45.0557 17.7934 12.202 -19.6217 87.6118 -21.2984
lowerback -2.8283 -1.60484 3.87256
upperback -1.46059 -2.21573 -1.08489
thorax -0.10687 -1.12981 -3.34226
lowerneck -4.21348 2.00354 -3.89447
upperneck 9.11011 2.77331 3.08982
head 3.60975 1.39574 1.83464
rclavicle -2.93456e-014 -4.96962e-015
rhumerus -32.192 -5.85096 -92.9261
rradius 26.0071
rwrist 34.5892
rhand 14.922 -17.1792
rfingers 7.12502
rthumb 39.7782 -42.4718
lclavicle -2.93456e-014 -4.96962e-015
lhumerus -37.5677 14.6 86.1236
lradius 31.8387
lwrist -16.4445
lhand -7.0109 13.0536
lfingers 7.12502
lthumb 18.8603 42.1593
rfemur -8.8249 3.87291 21.8463
rtibia 24.3622
rfoot -18.0279 -4.06378
rtoes -8.3291
lfemur -6.78729 -2.23691 -19.6438
ltibia 24.6242
lfoot -26.3878 10.6185
ltoes -10.3244
635
root 45.0566 17.7937 12.2044 -19.5538 87.6452 -21.2307
lowerback -2.86148 -1.61082 3.83922
upperback -1.44035 -2.22457 -1.08066
thorax -0.066737 -1.13287 -3.32087
lowerneck -4.24391 2.03232 -3.84383
upperneck 9.15152 2.82005 2.97076
head 3.62981 1.41568 1.78902
rclavicle 4.9075e-015 5.56597e-015
rhumerus -32.169 -5.77673 -92.9528
rradius 26.0492
rwrist 34.5734
rhand 14.9257 -17.1833
rfingers 7.12502
rthumb 39.7817 -42.4749
lclavicle 4.9075e-015 5.56597e-015
lhumerus -37.5226 14.5956 86.1391
lradius 31.8201
lwrist -16.4682
lhand -6.99151 13.0042
lfingers 7.12502
lthumb 18.879 42.108
rfemur -8.80605 3.85492 21.846
rtibia 24.3687
rfoot -18.0522 -4.0959
rtoes -8.39328
lfemur -6.78674 -2.29119 -19.6544
ltibia 24.6332
lfoot -26.3922 10.6247
ltoes -10.2963
636
root 45.0569 17.7935 12.2068 -19.7009 87.6758 -21.3992
lowerback -2.84326 -1.60368 3.84436
upperback -1.48101 -2.21343 -1.08579
thorax -0.118219 -1.12894 -3.32739
lowerneck -4.22558 2.04507 -3.82571
upperneck 9.22945 2.84303 2.89608
head 3.65354 1.42463 1.76293
rclavicle -2.3643e-014 5.1684e-015
rhumerus -32.2385 -5.67776 -92.99
rradius 26.0844
rwrist 34.467
rhand 14.8807 -17.2149
rfingers 7.12502
rthumb 39.7394 -42.519
lclavicle -2.3643e-014 5.1684e-015
lhumerus -37.5647 14.6629 86.0763
lradius 31.7911
lwrist -16.5816
lhand -7.03135 12.7826
lfingers 7.12502
lthumb 18.8407 41.8901
rfemur -8.79237 3.80852 21.8465
rtibia 24.3084
rfoot -18.0399 -4.08185
rtoes -8.3754
lfemur -6.82625 -2.33703 -19.652
ltibia 24.6802
lfoot -26.4188 10.6396
ltoes -10.2486
637
root 45.0572 17.7935 12.2091 -20.6865 87.7021 -22.4016
lowerback -2.89227 -1.60866 3.87801
upperback -1.46888 -2.22297 -1.08216
thorax -0.0803572 -1.13288 -3.34464
lowerneck -4.25755 2.07502 -3.79259
upperneck 9.2898 2.88797 2.83407
head 3.68013 1.44546 1.74005
rclavicle 1.26601e-014 7.55382e-015
rhumerus -32.2044 -5.58241 -93.0471
rradius 26.1189
rwrist 34.136
rhand 14.8233 -17.4076
rfingers 7.12502
rthumb 39.6853 -42.7279
lclavicle 1.26601e-014 7.55382e-015
lhumerus -37.5285 14.6791 86.0466
lradius 31.7734
lwrist -16.5791
lhand -6.97505 12.8451
lfingers 7.12502
lthumb 18.8948 41.9474
rfemur -8.78541 3.85174 21.8778
rtibia 24.2561
rfoot -17.9929 -4.13267
rtoes -8.29962
lfemur -6.85975 -2.37737 -19.6167
ltibia 24.7289
lfoot -26.5538 10.6379
ltoes -9.8963
638
root 45.0593 17.7975 12.2139 -22.8747 87.7033 -24.5683
lowerback -2.92062 -1.61932 3.91485
upperback -1.43536 -2.24013 -1.05953
thorax -0.0320554 -1.1401 -3.344
lowerneck -4.31604 2.11792 -3.77617
upperneck 9.34672 2.94666 2.83301
head 3.70944 1.4751 1.74173
rclavicle 2.47984e-014 1.0138e-014
rhumerus -32.18 -5.50453 -93.0985
rradius 26.1636
rwrist 33.992
rhand 14.8029 -17.4808
rfingers 7.12502
rthumb 39.6661 -42.8067
lclavicle 2.47984e-014 1.0138e-014
lhumerus -37.4836 14.7016 86.0034
lradius 31.7575
lwrist -16.583
lhand -6.90877 12.8208
lfingers 7.12502
lthumb 18.9586 41.9168
rfemur -8.7187 4.06231 21.9821
rtibia 24.2087
rfoot -18.0116 -4.31963
rtoes -8.17218
lfemur -6.88842 -2.45796 -19.5104
ltibia 24.7732
lfoot -26.4329 10.6553
ltoes -10.1783
639
root 45.059 17.7924 12.2181 -24.5145 87.7418 -26.2126
lowerback -2.96136 -1.61944 3.93059
upperback -1.41397 -2.24286 -1.03241
thorax 0.0129895 -1.14015 -3.32676
lowerneck -4.33372 2.12819 -3.87095
upperneck 9.36821 2.96394 2.8851
head 3.71834 1.48258 1.77782
rclavicle 2.58047e-014 9.54166e-015
rhumerus -32.1592 -5.43541 -93.0906
rradius 26.1955
rwrist 33.8284
rhand 14.8288 -17.5325
rfingers 7.12502
rthumb 39.6905 -42.8512
lclavicle 2.58047e-014 9.54166e-015
lhumerus -37.4256 14.7124 86.0149
lradius 31.7339
lwrist -16.5605
lhand -6.86394 12.7193
lfingers 7.12502
lthumb 19.0017 41.8111
rfemur -8.69685 4.15468 22.0503
rtibia 24.1846
rfoot -18.0299 -4.46879
rtoes -8.15421
lfemur -6.89337 -2.38342 -19.4429
ltibia 24.7979
lfoot -26.4516 10.5768
ltoes -10.2461
640
root 45.0598 17.7919 12.22 -23.8274 87.8294 -25.5158
lowerback -2.96131 -1.63689 3.87062
upperback -1.41792 -2.26431 -1.05237
thorax 0.00864933 -1.15077 -3.31404
lowerneck -4.4398 2.16206 -3.72865
upperneck 9.51251 3.01641 2.73831
head 3.79094 1.50726 1.71087
rclavicle -6.8208e-015 -8.94531e-015
rhumerus -32.1739 -5.47449 -93.0795
rradius 26.2137
rwrist 33.781
rhand 14.9629 -17.5709
rfingers 7.12502
rthumb 39.8167 -42.852
lclavicle -6.8208e-015 -8.94531e-015
lhumerus -37.4227 14.7251 85.9575
lradius 31.7186
lwrist -16.6237
lhand -6.6669 12.6787
lfingers 7.12502
lthumb 19.1912 41.7519
rfemur -8.65892 3.93503 21.9863
rtibia 24.1482
rfoot -18.0322 -4.36282
rtoes -8.17008
lfemur -6.88642 -2.45007 -19.508
ltibia 24.8185
lfoot -26.4355 10.5888
ltoes -10.3581
